<?xml version="1.0" encoding="UTF-8"?>
<svg xmlns="http://www.w3.org/2000/svg" xmlns:xlink="http://www.w3.org/1999/xlink" width="21pt" height="22pt" viewBox="0 0 21 22" version="1.1">
<g id="surface1">
<path style=" stroke:none;fill-rule:nonzero;fill:rgb(0%,50.196078%,0%);fill-opacity:1;" d="M 10.507812 20.144531 C 10.695312 19.019531 10.769531 17.480469 10.640625 17.480469 C 10.605469 17.480469 10.476562 17.546875 10.347656 17.628906 C 10.035156 17.824219 9.238281 18.238281 9.171875 18.238281 C 9.144531 18.238281 9.105469 18.210938 9.085938 18.179688 C 9.058594 18.125 8.996094 18.144531 8.679688 18.304688 C 8.351562 18.464844 8.292969 18.484375 8.210938 18.441406 C 8.132812 18.398438 8.078125 18.414062 7.820312 18.535156 C 7.488281 18.691406 7.449219 18.699219 7.335938 18.628906 C 7.277344 18.59375 7.230469 18.601562 7.085938 18.683594 C 6.796875 18.847656 6.730469 18.859375 6.699219 18.738281 C 6.6875 18.679688 6.664062 18.640625 6.648438 18.648438 C 6.40625 18.777344 6.179688 18.851562 6.015625 18.859375 C 5.785156 18.867188 5.542969 18.933594 4.945312 19.164062 C 4.71875 19.25 4.519531 19.3125 4.511719 19.304688 C 4.460938 19.257812 4.570312 19.148438 4.976562 18.84375 C 5.21875 18.660156 5.449219 18.480469 5.492188 18.445312 C 5.535156 18.40625 5.613281 18.34375 5.667969 18.308594 C 5.722656 18.269531 5.769531 18.199219 5.769531 18.148438 C 5.769531 18.078125 5.824219 18.03125 6.007812 17.945312 C 6.15625 17.871094 6.226562 17.816406 6.195312 17.796875 C 6.101562 17.742188 6.191406 17.648438 6.417969 17.566406 C 6.542969 17.519531 6.683594 17.480469 6.726562 17.480469 C 6.816406 17.480469 6.820312 17.464844 6.765625 17.359375 C 6.730469 17.296875 6.746094 17.28125 6.898438 17.238281 C 6.992188 17.210938 7.171875 17.1875 7.300781 17.1875 C 7.515625 17.183594 7.53125 17.175781 7.511719 17.097656 C 7.492188 17.019531 7.507812 17.011719 7.785156 16.988281 C 7.953125 16.972656 8.144531 16.976562 8.21875 17 C 8.328125 17.03125 8.351562 17.027344 8.332031 16.984375 C 8.300781 16.902344 8.511719 16.878906 9.15625 16.90625 L 9.746094 16.925781 L 9.339844 16.785156 C 8.957031 16.652344 8.085938 16.386719 7.707031 16.289062 C 7.613281 16.261719 7.539062 16.230469 7.546875 16.214844 C 7.578125 16.160156 7.429688 16.066406 7.292969 16.054688 C 7.214844 16.046875 6.992188 16.015625 6.800781 15.980469 C 6.503906 15.929688 6.445312 15.90625 6.417969 15.835938 C 6.402344 15.789062 6.394531 15.730469 6.394531 15.703125 C 6.398438 15.679688 6.242188 15.628906 6.050781 15.589844 C 5.675781 15.511719 5.527344 15.421875 5.566406 15.292969 C 5.585938 15.234375 5.566406 15.210938 5.457031 15.191406 C 5.085938 15.117188 4.90625 15.046875 4.839844 14.949219 C 4.773438 14.851562 4.773438 14.839844 4.839844 14.769531 C 4.902344 14.703125 4.902344 14.691406 4.851562 14.691406 C 4.816406 14.691406 4.65625 14.664062 4.496094 14.628906 C 4.277344 14.578125 4.1875 14.539062 4.140625 14.46875 C 4.082031 14.378906 4.085938 14.371094 4.175781 14.296875 C 4.226562 14.253906 4.257812 14.214844 4.238281 14.210938 C 4.222656 14.207031 4.195312 14.203125 4.179688 14.199219 C 4.007812 14.167969 3.507812 13.949219 3.433594 13.871094 C 3.339844 13.773438 3.339844 13.769531 3.414062 13.714844 C 3.492188 13.660156 3.492188 13.660156 3.414062 13.632812 C 3.210938 13.5625 2.96875 13.449219 2.902344 13.390625 C 2.824219 13.320312 2.804688 13.179688 2.871094 13.179688 C 2.980469 13.179688 2.886719 13.109375 2.667969 13.027344 C 2.535156 12.976562 2.386719 12.886719 2.339844 12.828125 L 2.253906 12.722656 L 2.339844 12.667969 C 2.421875 12.613281 2.414062 12.605469 2.152344 12.453125 C 1.855469 12.28125 1.808594 12.234375 1.839844 12.140625 C 1.851562 12.097656 1.820312 12.058594 1.75 12.027344 C 1.578125 11.949219 1.328125 11.742188 1.339844 11.683594 C 1.355469 11.609375 0.886719 11.253906 0.398438 10.972656 C 0.0820312 10.789062 0 10.726562 0.0664062 10.714844 C 0.113281 10.707031 0.25 10.734375 0.367188 10.769531 C 0.617188 10.847656 1.441406 11.167969 1.539062 11.226562 C 1.578125 11.246094 1.636719 11.253906 1.667969 11.242188 C 1.699219 11.230469 1.84375 11.28125 1.984375 11.351562 C 2.125 11.425781 2.253906 11.492188 2.273438 11.5 C 2.289062 11.507812 2.304688 11.484375 2.304688 11.449219 C 2.304688 11.414062 2.3125 11.386719 2.324219 11.386719 C 2.375 11.386719 2.617188 11.523438 2.761719 11.636719 C 2.914062 11.753906 2.917969 11.753906 2.9375 11.671875 C 2.953125 11.625 2.976562 11.585938 2.992188 11.585938 C 3.042969 11.585938 3.46875 11.933594 3.492188 11.992188 C 3.503906 12.023438 3.53125 11.996094 3.554688 11.929688 L 3.601562 11.820312 L 3.734375 11.910156 C 3.804688 11.960938 3.949219 12.085938 4.054688 12.1875 L 4.246094 12.375 L 4.292969 12.238281 C 4.316406 12.164062 4.347656 12.101562 4.359375 12.101562 C 4.398438 12.101562 4.835938 12.507812 4.964844 12.664062 L 5.09375 12.820312 L 5.136719 12.699219 C 5.160156 12.636719 5.195312 12.582031 5.21875 12.582031 C 5.273438 12.582031 5.75 13.09375 5.789062 13.195312 C 5.820312 13.277344 5.824219 13.273438 5.875 13.167969 C 5.902344 13.109375 5.949219 13.058594 5.976562 13.058594 C 6.039062 13.058594 6.519531 13.5625 6.523438 13.628906 C 6.523438 13.65625 6.550781 13.628906 6.585938 13.566406 C 6.617188 13.507812 6.660156 13.457031 6.675781 13.457031 C 6.71875 13.457031 7.105469 13.894531 7.207031 14.054688 L 7.289062 14.191406 L 7.332031 14.082031 C 7.351562 14.023438 7.386719 13.976562 7.410156 13.976562 C 7.457031 13.976562 7.941406 14.605469 7.941406 14.667969 C 7.945312 14.691406 7.964844 14.671875 7.992188 14.625 C 8.019531 14.578125 8.054688 14.53125 8.070312 14.527344 C 8.101562 14.511719 8.574219 15.101562 8.660156 15.269531 C 8.722656 15.382812 8.722656 15.382812 8.769531 15.296875 C 8.816406 15.210938 8.820312 15.210938 8.960938 15.359375 C 9.042969 15.441406 9.179688 15.601562 9.269531 15.71875 C 9.445312 15.9375 9.9375 16.402344 10.171875 16.566406 L 10.3125 16.664062 L 10.222656 16.539062 C 10.171875 16.46875 10.132812 16.402344 10.132812 16.386719 C 10.132812 16.375 10.058594 16.257812 9.972656 16.132812 C 9.808594 15.894531 9.507812 15.585938 9.015625 15.144531 C 8.855469 15.003906 8.703125 14.832031 8.675781 14.761719 C 8.628906 14.644531 8.554688 14.578125 8.117188 14.246094 C 7.996094 14.15625 7.859375 13.976562 7.859375 13.910156 C 7.859375 13.902344 7.890625 13.894531 7.929688 13.894531 C 7.988281 13.890625 7.984375 13.878906 7.902344 13.824219 C 7.558594 13.59375 7.234375 13.328125 7.1875 13.242188 C 7.144531 13.152344 7.144531 13.136719 7.203125 13.101562 C 7.242188 13.082031 7.261719 13.058594 7.25 13.050781 C 7.242188 13.039062 7.105469 12.945312 6.949219 12.839844 C 6.585938 12.59375 6.433594 12.421875 6.574219 12.421875 C 6.605469 12.421875 6.648438 12.402344 6.671875 12.375 C 6.707031 12.34375 6.660156 12.292969 6.488281 12.183594 C 6.269531 12.042969 5.996094 11.78125 5.996094 11.707031 C 5.996094 11.6875 6.039062 11.664062 6.097656 11.648438 C 6.152344 11.632812 6.199219 11.609375 6.199219 11.589844 C 6.199219 11.574219 6.085938 11.480469 5.949219 11.382812 C 5.8125 11.285156 5.675781 11.160156 5.644531 11.101562 C 5.59375 10.996094 5.59375 10.992188 5.710938 10.96875 C 5.867188 10.933594 5.863281 10.902344 5.699219 10.816406 C 5.523438 10.722656 5.140625 10.382812 5.140625 10.320312 C 5.140625 10.292969 5.191406 10.25 5.246094 10.21875 L 5.351562 10.164062 L 5.183594 10.058594 C 4.980469 9.925781 4.695312 9.675781 4.695312 9.628906 C 4.695312 9.613281 4.765625 9.574219 4.851562 9.550781 L 5.003906 9.503906 L 4.648438 9.160156 C 4.453125 8.96875 4.289062 8.785156 4.289062 8.75 C 4.289062 8.707031 4.339844 8.675781 4.433594 8.660156 L 4.574219 8.632812 L 4.316406 8.386719 C 3.996094 8.078125 3.964844 8.003906 4.128906 7.972656 C 4.195312 7.960938 4.25 7.941406 4.25 7.933594 C 4.25 7.925781 4.160156 7.8125 4.050781 7.675781 C 3.847656 7.429688 3.777344 7.28125 3.859375 7.28125 C 3.882812 7.28125 3.933594 7.265625 3.964844 7.242188 C 4.015625 7.210938 4.011719 7.195312 3.941406 7.136719 C 3.808594 7.019531 3.640625 6.78125 3.640625 6.710938 C 3.640625 6.667969 3.675781 6.644531 3.746094 6.644531 L 3.851562 6.644531 L 3.746094 6.519531 C 3.617188 6.371094 3.480469 6.117188 3.480469 6.027344 C 3.480469 5.996094 3.515625 5.96875 3.558594 5.96875 C 3.632812 5.96875 3.628906 5.949219 3.515625 5.710938 C 3.394531 5.445312 3.359375 5.261719 3.441406 5.3125 C 3.472656 5.332031 3.480469 5.3125 3.460938 5.257812 C 3.449219 5.214844 3.402344 5.054688 3.359375 4.90625 C 3.316406 4.753906 3.171875 4.394531 3.035156 4.105469 C 2.902344 3.816406 2.789062 3.570312 2.789062 3.554688 C 2.789062 3.472656 2.992188 3.730469 3.34375 4.25 C 3.5625 4.570312 3.777344 4.871094 3.828125 4.917969 C 3.878906 4.960938 3.96875 5.101562 4.027344 5.226562 C 4.085938 5.347656 4.152344 5.441406 4.175781 5.425781 C 4.195312 5.414062 4.242188 5.425781 4.273438 5.453125 C 4.351562 5.515625 4.511719 5.824219 4.550781 5.988281 L 4.582031 6.105469 L 4.652344 6.011719 L 4.726562 5.917969 L 4.789062 6.007812 C 4.824219 6.054688 4.886719 6.199219 4.925781 6.328125 C 5 6.5625 5.046875 6.605469 5.132812 6.519531 C 5.15625 6.496094 5.195312 6.488281 5.214844 6.5 C 5.273438 6.535156 5.398438 6.804688 5.425781 6.957031 L 5.445312 7.089844 L 5.542969 7 C 5.636719 6.914062 5.640625 6.914062 5.683594 6.988281 C 5.773438 7.140625 5.910156 7.492188 5.933594 7.648438 L 5.960938 7.804688 L 6.050781 7.722656 C 6.101562 7.679688 6.160156 7.640625 6.1875 7.640625 C 6.234375 7.640625 6.359375 8.121094 6.359375 8.304688 L 6.359375 8.410156 L 6.464844 8.316406 C 6.566406 8.222656 6.570312 8.222656 6.625 8.292969 C 6.65625 8.335938 6.691406 8.445312 6.707031 8.535156 C 6.746094 8.785156 6.78125 8.828125 6.882812 8.738281 C 6.929688 8.699219 6.976562 8.671875 6.988281 8.683594 C 7.03125 8.722656 7.203125 9.226562 7.230469 9.382812 C 7.246094 9.476562 7.269531 9.554688 7.285156 9.554688 C 7.296875 9.554688 7.351562 9.515625 7.402344 9.464844 C 7.453125 9.417969 7.507812 9.390625 7.519531 9.40625 C 7.5625 9.445312 7.65625 9.882812 7.65625 10.042969 C 7.65625 10.199219 7.695312 10.230469 7.78125 10.132812 C 7.808594 10.097656 7.84375 10.070312 7.863281 10.070312 C 7.90625 10.070312 7.976562 10.285156 8.035156 10.609375 C 8.082031 10.859375 8.089844 10.875 8.152344 10.8125 C 8.191406 10.777344 8.226562 10.75 8.238281 10.75 C 8.277344 10.75 8.480469 11.414062 8.503906 11.617188 L 8.53125 11.832031 L 8.640625 11.746094 C 8.726562 11.679688 8.757812 11.671875 8.769531 11.710938 C 8.78125 11.742188 8.84375 11.9375 8.914062 12.152344 C 8.984375 12.367188 9.054688 12.625 9.070312 12.722656 L 9.097656 12.90625 L 9.207031 12.824219 L 9.316406 12.738281 L 9.355469 12.886719 C 9.453125 13.257812 9.519531 13.53125 9.542969 13.6875 C 9.570312 13.855469 9.613281 13.898438 9.667969 13.8125 C 9.703125 13.753906 9.777344 13.957031 9.925781 14.535156 C 10.035156 14.949219 10.253906 15.527344 10.460938 15.949219 L 10.542969 16.105469 L 10.523438 15.789062 C 10.511719 15.609375 10.460938 15.332031 10.402344 15.152344 C 10.347656 14.976562 10.273438 14.699219 10.238281 14.535156 C 10.183594 14.273438 10.183594 14.230469 10.234375 14.191406 C 10.269531 14.164062 10.277344 14.132812 10.253906 14.109375 C 10.214844 14.074219 9.929688 13.289062 9.929688 13.222656 C 9.929688 13.203125 9.972656 13.199219 10.027344 13.207031 L 10.125 13.226562 L 9.96875 12.84375 C 9.882812 12.636719 9.800781 12.402344 9.785156 12.324219 C 9.757812 12.191406 9.765625 12.183594 9.863281 12.183594 C 9.921875 12.183594 9.96875 12.175781 9.96875 12.171875 C 9.96875 12.164062 9.925781 12.066406 9.871094 11.957031 C 9.78125 11.773438 9.644531 11.335938 9.644531 11.230469 C 9.644531 11.207031 9.703125 11.1875 9.769531 11.1875 C 9.875 11.1875 9.890625 11.175781 9.867188 11.117188 C 9.769531 10.886719 9.605469 10.441406 9.582031 10.34375 C 9.558594 10.234375 9.5625 10.230469 9.703125 10.230469 L 9.851562 10.230469 L 9.792969 10.121094 C 9.722656 9.988281 9.5625 9.488281 9.5625 9.40625 C 9.5625 9.359375 9.597656 9.351562 9.6875 9.363281 C 9.789062 9.378906 9.804688 9.367188 9.78125 9.316406 C 9.722656 9.1875 9.570312 8.730469 9.542969 8.601562 L 9.515625 8.46875 L 9.6875 8.496094 C 9.847656 8.523438 9.859375 8.519531 9.828125 8.453125 C 9.726562 8.21875 9.644531 7.941406 9.621094 7.742188 L 9.59375 7.515625 L 9.882812 7.570312 L 9.785156 7.335938 C 9.730469 7.207031 9.6875 7.042969 9.6875 6.96875 C 9.6875 6.839844 9.691406 6.835938 9.8125 6.859375 C 9.917969 6.878906 9.933594 6.875 9.910156 6.816406 C 9.730469 6.347656 9.730469 6.21875 9.914062 6.238281 L 10.042969 6.25 L 9.980469 6.078125 C 9.949219 5.984375 9.917969 5.816406 9.914062 5.707031 L 9.910156 5.507812 L 10.066406 5.519531 C 10.199219 5.527344 10.21875 5.519531 10.191406 5.457031 C 10.175781 5.421875 10.152344 5.222656 10.140625 5.015625 L 10.121094 4.640625 L 10.269531 4.667969 C 10.414062 4.695312 10.414062 4.695312 10.375 4.59375 C 10.324219 4.464844 10.324219 4.175781 10.371094 4.097656 C 10.390625 4.070312 10.4375 4.054688 10.472656 4.066406 C 10.527344 4.089844 10.539062 4.054688 10.539062 3.859375 C 10.539062 3.589844 10.566406 3.496094 10.632812 3.519531 C 10.667969 3.53125 10.675781 3.472656 10.664062 3.316406 C 10.652344 3.101562 10.65625 3.09375 10.738281 3.117188 C 10.816406 3.140625 10.820312 3.128906 10.820312 2.957031 C 10.820312 2.855469 10.847656 2.714844 10.878906 2.648438 C 10.910156 2.578125 10.957031 2.332031 10.980469 2.101562 C 11.035156 1.617188 11.136719 0.902344 11.175781 0.726562 L 11.199219 0.609375 L 11.230469 0.707031 C 11.246094 0.761719 11.261719 1.03125 11.265625 1.304688 C 11.269531 1.90625 11.34375 2.710938 11.398438 2.746094 C 11.421875 2.757812 11.433594 2.871094 11.425781 2.992188 C 11.410156 3.195312 11.417969 3.214844 11.484375 3.195312 C 11.554688 3.171875 11.558594 3.191406 11.546875 3.492188 C 11.53125 3.792969 11.535156 3.8125 11.613281 3.804688 C 11.6875 3.796875 11.695312 3.820312 11.695312 4.035156 C 11.695312 4.167969 11.679688 4.316406 11.660156 4.367188 C 11.628906 4.449219 11.636719 4.453125 11.738281 4.429688 L 11.847656 4.402344 L 11.828125 4.738281 C 11.816406 4.925781 11.785156 5.117188 11.757812 5.167969 C 11.710938 5.25 11.714844 5.253906 11.851562 5.226562 L 12 5.203125 L 12 5.355469 C 12 5.503906 11.925781 5.820312 11.855469 5.980469 C 11.824219 6.058594 11.855469 6.058594 12.074219 5.976562 C 12.121094 5.957031 12.128906 6 12.109375 6.210938 C 12.097656 6.351562 12.058594 6.542969 12.027344 6.640625 L 11.964844 6.8125 L 12.105469 6.792969 C 12.203125 6.777344 12.253906 6.785156 12.265625 6.820312 C 12.285156 6.867188 12.164062 7.265625 12.058594 7.496094 C 12.03125 7.5625 12.039062 7.566406 12.15625 7.542969 C 12.277344 7.515625 12.28125 7.519531 12.28125 7.652344 C 12.28125 7.808594 12.15625 8.195312 12.035156 8.390625 C 11.9375 8.554688 11.953125 8.582031 12.121094 8.523438 L 12.25 8.476562 L 12.230469 8.675781 C 12.222656 8.785156 12.15625 8.988281 12.085938 9.125 C 12.019531 9.261719 11.96875 9.378906 11.976562 9.382812 C 11.980469 9.390625 12.035156 9.378906 12.09375 9.355469 C 12.328125 9.269531 12.273438 9.542969 11.925781 10.246094 C 11.914062 10.261719 11.964844 10.265625 12.035156 10.25 C 12.15625 10.226562 12.160156 10.230469 12.160156 10.355469 C 12.160156 10.429688 12.097656 10.640625 12.019531 10.828125 C 11.941406 11.015625 11.878906 11.171875 11.878906 11.175781 C 11.875 11.183594 11.921875 11.1875 11.980469 11.1875 C 12.078125 11.1875 12.082031 11.195312 12.058594 11.316406 C 12.042969 11.386719 11.96875 11.574219 11.894531 11.730469 C 11.816406 11.886719 11.753906 12.027344 11.753906 12.035156 C 11.753906 12.046875 11.792969 12.046875 11.835938 12.035156 C 11.964844 12.003906 11.941406 12.199219 11.773438 12.535156 C 11.695312 12.695312 11.632812 12.835938 11.632812 12.84375 C 11.632812 12.855469 11.679688 12.851562 11.734375 12.835938 C 11.820312 12.816406 11.835938 12.824219 11.835938 12.894531 C 11.835938 12.941406 11.855469 12.980469 11.875 12.980469 C 11.898438 12.980469 11.917969 12.890625 11.917969 12.78125 C 11.917969 12.632812 11.933594 12.582031 11.976562 12.582031 C 12.007812 12.582031 12.046875 12.597656 12.058594 12.621094 C 12.121094 12.71875 12.195312 12.65625 12.191406 12.511719 C 12.1875 12.335938 12.242188 11.738281 12.269531 11.695312 C 12.277344 11.679688 12.328125 11.691406 12.378906 11.726562 L 12.472656 11.785156 L 12.496094 11.394531 C 12.523438 10.957031 12.550781 10.851562 12.632812 10.886719 C 12.664062 10.898438 12.710938 10.917969 12.738281 10.929688 C 12.777344 10.945312 12.804688 10.839844 12.84375 10.519531 C 12.871094 10.285156 12.90625 10.085938 12.914062 10.074219 C 12.925781 10.0625 12.988281 10.082031 13.050781 10.117188 L 13.164062 10.179688 L 13.191406 9.855469 C 13.207031 9.679688 13.238281 9.464844 13.257812 9.382812 L 13.300781 9.230469 L 13.433594 9.328125 L 13.570312 9.429688 L 13.59375 9.214844 C 13.628906 8.929688 13.695312 8.632812 13.742188 8.558594 C 13.769531 8.511719 13.792969 8.515625 13.882812 8.570312 L 13.984375 8.640625 L 13.984375 8.488281 C 13.984375 8.40625 14.003906 8.265625 14.027344 8.179688 C 14.105469 7.898438 14.101562 7.902344 14.183594 7.972656 C 14.296875 8.074219 14.351562 8.050781 14.351562 7.90625 C 14.351562 7.734375 14.433594 7.320312 14.46875 7.320312 C 14.484375 7.320312 14.53125 7.347656 14.578125 7.378906 C 14.691406 7.46875 14.703125 7.457031 14.710938 7.253906 C 14.71875 7.039062 14.824219 6.644531 14.871094 6.644531 C 14.890625 6.644531 14.9375 6.671875 14.980469 6.703125 C 15.09375 6.789062 15.121094 6.777344 15.121094 6.65625 C 15.121094 6.507812 15.191406 6.285156 15.265625 6.191406 C 15.320312 6.117188 15.328125 6.117188 15.398438 6.179688 C 15.472656 6.246094 15.476562 6.242188 15.5 6.074219 C 15.511719 5.980469 15.542969 5.851562 15.566406 5.792969 C 15.609375 5.683594 15.613281 5.683594 15.710938 5.746094 C 15.808594 5.808594 15.8125 5.808594 15.8125 5.710938 C 15.8125 5.660156 15.847656 5.53125 15.894531 5.425781 C 15.957031 5.28125 15.988281 5.25 16.023438 5.285156 C 16.09375 5.351562 16.136719 5.339844 16.136719 5.25 C 16.136719 5.207031 16.167969 5.109375 16.203125 5.03125 C 16.253906 4.925781 16.292969 4.898438 16.347656 4.914062 C 16.394531 4.929688 16.417969 4.917969 16.417969 4.882812 C 16.417969 4.851562 16.5 4.703125 16.59375 4.550781 C 16.875 4.113281 17.109375 3.714844 17.109375 3.679688 C 17.109375 3.617188 17.410156 3.171875 17.425781 3.210938 C 17.441406 3.261719 17.355469 3.554688 17.234375 3.851562 C 17.097656 4.183594 16.859375 5.109375 16.90625 5.125 C 16.972656 5.144531 16.953125 5.300781 16.867188 5.46875 C 16.769531 5.65625 16.769531 5.648438 16.847656 5.648438 C 16.949219 5.648438 16.917969 5.753906 16.671875 6.261719 C 16.660156 6.28125 16.699219 6.285156 16.757812 6.269531 C 16.855469 6.246094 16.867188 6.253906 16.867188 6.359375 C 16.867188 6.425781 16.796875 6.613281 16.710938 6.78125 L 16.554688 7.082031 L 16.671875 7.082031 C 16.765625 7.082031 16.785156 7.101562 16.785156 7.179688 C 16.785156 7.285156 16.589844 7.667969 16.4375 7.867188 C 16.335938 8 16.359375 8.039062 16.542969 8.039062 C 16.714844 8.039062 16.621094 8.242188 16.3125 8.558594 L 16.097656 8.777344 L 16.378906 8.855469 L 16.292969 8.996094 C 16.246094 9.074219 16.117188 9.226562 16.003906 9.339844 L 15.796875 9.546875 L 15.90625 9.574219 C 16.0625 9.613281 16.019531 9.722656 15.746094 9.984375 C 15.625 10.101562 15.527344 10.203125 15.527344 10.214844 C 15.527344 10.222656 15.566406 10.230469 15.609375 10.230469 C 15.769531 10.230469 15.632812 10.484375 15.363281 10.695312 L 15.195312 10.824219 L 15.300781 10.851562 C 15.359375 10.863281 15.40625 10.894531 15.40625 10.914062 C 15.40625 10.960938 15.320312 11.121094 15.28125 11.148438 C 15.265625 11.15625 15.167969 11.246094 15.058594 11.339844 C 14.898438 11.488281 14.878906 11.523438 14.933594 11.554688 C 15.03125 11.605469 14.960938 11.714844 14.601562 12.046875 C 14.328125 12.304688 14.304688 12.335938 14.386719 12.359375 C 14.464844 12.386719 14.46875 12.394531 14.414062 12.5 C 14.378906 12.5625 14.234375 12.714844 14.089844 12.839844 C 13.820312 13.074219 13.773438 13.140625 13.886719 13.140625 C 14.011719 13.140625 13.902344 13.316406 13.578125 13.632812 C 13.398438 13.804688 13.253906 13.953125 13.253906 13.960938 C 13.253906 13.96875 13.28125 13.976562 13.316406 13.976562 C 13.386719 13.976562 13.398438 14.039062 13.335938 14.074219 C 13.3125 14.089844 13.304688 14.117188 13.316406 14.132812 C 13.328125 14.152344 13.191406 14.289062 13.015625 14.433594 C 12.835938 14.582031 12.675781 14.75 12.652344 14.804688 C 12.632812 14.863281 12.476562 15.074219 12.308594 15.269531 C 11.90625 15.742188 11.199219 16.761719 11.410156 16.566406 C 11.828125 16.179688 12.222656 15.753906 12.40625 15.488281 C 12.6875 15.085938 12.71875 15.054688 12.773438 15.132812 C 12.804688 15.175781 12.820312 15.175781 12.835938 15.140625 C 12.90625 14.972656 13.101562 14.65625 13.277344 14.433594 C 13.445312 14.21875 13.488281 14.183594 13.523438 14.234375 C 13.585938 14.316406 13.609375 14.308594 13.636719 14.203125 C 13.648438 14.15625 13.734375 14.019531 13.824219 13.902344 C 13.914062 13.78125 14.003906 13.65625 14.027344 13.621094 C 14.0625 13.5625 14.074219 13.5625 14.125 13.632812 C 14.179688 13.699219 14.191406 13.691406 14.285156 13.511719 C 14.339844 13.40625 14.441406 13.253906 14.507812 13.179688 C 14.632812 13.035156 14.652344 13.039062 14.734375 13.199219 C 14.75 13.222656 14.765625 13.21875 14.78125 13.1875 C 14.800781 13.144531 15.226562 12.550781 15.269531 12.503906 C 15.277344 12.492188 15.324219 12.523438 15.371094 12.570312 L 15.460938 12.65625 L 15.542969 12.5 C 15.636719 12.332031 15.90625 12.023438 15.960938 12.023438 C 15.980469 12.023438 16.019531 12.082031 16.046875 12.148438 L 16.09375 12.277344 L 16.207031 12.113281 C 16.34375 11.914062 16.613281 11.625 16.660156 11.625 C 16.679688 11.625 16.71875 11.6875 16.746094 11.765625 C 16.796875 11.917969 16.847656 11.941406 16.882812 11.832031 C 16.910156 11.75 17.484375 11.226562 17.546875 11.226562 C 17.566406 11.226562 17.605469 11.277344 17.632812 11.335938 C 17.683594 11.445312 17.683594 11.445312 17.753906 11.363281 C 17.84375 11.25 18.328125 10.90625 18.394531 10.90625 C 18.425781 10.90625 18.449219 10.941406 18.449219 10.980469 C 18.449219 11.101562 18.492188 11.109375 18.597656 11.003906 C 18.695312 10.90625 19.058594 10.707031 19.136719 10.707031 C 19.160156 10.707031 19.179688 10.738281 19.179688 10.773438 C 19.179688 10.832031 19.183594 10.835938 19.25 10.78125 C 19.355469 10.6875 19.511719 10.617188 19.625 10.605469 C 19.679688 10.601562 19.980469 10.488281 20.292969 10.351562 C 21.019531 10.035156 21.042969 10.027344 21.042969 10.070312 C 21.042969 10.085938 20.921875 10.199219 20.769531 10.316406 C 20.378906 10.617188 19.929688 11.039062 19.933594 11.097656 C 19.941406 11.160156 19.65625 11.40625 19.464844 11.503906 C 19.328125 11.574219 19.328125 11.574219 19.414062 11.632812 C 19.5 11.691406 19.5 11.695312 19.429688 11.757812 C 19.390625 11.792969 19.253906 11.867188 19.125 11.925781 C 18.910156 12.023438 18.894531 12.035156 18.964844 12.085938 C 19.070312 12.164062 18.996094 12.253906 18.695312 12.40625 C 18.386719 12.558594 18.371094 12.578125 18.457031 12.625 C 18.609375 12.707031 18.378906 12.890625 17.945312 13.035156 C 17.875 13.058594 17.875 13.066406 17.933594 13.132812 C 17.988281 13.191406 17.992188 13.214844 17.949219 13.269531 C 17.890625 13.347656 17.34375 13.617188 17.242188 13.617188 C 17.183594 13.617188 17.1875 13.628906 17.265625 13.691406 C 17.460938 13.839844 17.242188 14.03125 16.753906 14.140625 C 16.53125 14.191406 16.496094 14.226562 16.605469 14.285156 C 16.742188 14.359375 16.601562 14.476562 16.207031 14.613281 C 15.664062 14.804688 15.667969 14.800781 15.753906 14.898438 C 15.824219 14.972656 15.824219 14.976562 15.742188 15.058594 C 15.6875 15.113281 15.53125 15.164062 15.28125 15.214844 C 14.945312 15.28125 14.804688 15.351562 14.796875 15.453125 C 14.796875 15.46875 14.636719 15.535156 14.441406 15.609375 C 14.246094 15.679688 14.046875 15.78125 14 15.832031 C 13.882812 15.957031 13.71875 16.03125 12.808594 16.386719 C 12.375 16.554688 11.917969 16.746094 11.796875 16.808594 C 11.589844 16.914062 11.585938 16.921875 11.714844 16.902344 C 11.792969 16.886719 12.042969 16.828125 12.269531 16.761719 C 12.875 16.597656 12.972656 16.582031 12.972656 16.660156 C 12.972656 16.71875 12.980469 16.71875 13.0625 16.667969 C 13.136719 16.621094 13.441406 16.554688 13.761719 16.511719 C 13.785156 16.507812 13.796875 16.546875 13.789062 16.597656 C 13.777344 16.683594 13.785156 16.6875 13.871094 16.640625 C 13.953125 16.597656 14.484375 16.449219 14.5625 16.445312 C 14.582031 16.445312 14.59375 16.484375 14.59375 16.53125 C 14.59375 16.59375 14.613281 16.605469 14.664062 16.585938 C 14.8125 16.53125 15.128906 16.480469 15.183594 16.5 C 15.214844 16.511719 15.230469 16.550781 15.21875 16.585938 C 15.199219 16.636719 15.210938 16.640625 15.289062 16.609375 C 15.34375 16.589844 15.484375 16.5625 15.605469 16.546875 L 15.824219 16.515625 L 15.800781 16.621094 L 15.78125 16.722656 L 16.058594 16.699219 C 16.324219 16.675781 16.339844 16.675781 16.339844 16.757812 C 16.339844 16.835938 16.359375 16.84375 16.597656 16.84375 C 16.820312 16.84375 16.855469 16.855469 16.851562 16.914062 C 16.847656 16.953125 16.867188 16.980469 16.898438 16.972656 C 16.925781 16.96875 17.023438 16.980469 17.121094 17 C 17.214844 17.023438 17.355469 17.050781 17.433594 17.0625 C 17.511719 17.078125 17.589844 17.113281 17.609375 17.144531 C 17.625 17.175781 17.671875 17.203125 17.710938 17.203125 C 17.90625 17.203125 18.761719 17.566406 18.832031 17.679688 C 18.84375 17.695312 18.488281 17.707031 18.046875 17.703125 C 17.332031 17.703125 17.230469 17.707031 17.160156 17.769531 C 17.109375 17.816406 17.015625 17.839844 16.886719 17.839844 C 16.742188 17.839844 16.664062 17.863281 16.597656 17.925781 C 16.515625 18 16.457031 18.011719 16.117188 18.011719 C 15.785156 18.015625 15.730469 18.023438 15.738281 18.078125 C 15.765625 18.25 15.632812 18.277344 15.222656 18.175781 C 14.980469 18.113281 14.957031 18.113281 14.894531 18.175781 C 14.820312 18.25 14.671875 18.234375 14.433594 18.125 C 14.34375 18.082031 14.183594 18.058594 14.007812 18.058594 C 13.699219 18.058594 12.960938 17.859375 11.9375 17.5 C 11.539062 17.363281 11.371094 17.320312 11.253906 17.335938 C 10.96875 17.371094 10.933594 17.246094 10.902344 18.046875 C 10.875 18.8125 10.777344 19.664062 10.617188 20.519531 C 10.417969 20.6875 10.476562 20.320312 10.507812 20.144531 Z M 10.976562 17.078125 C 10.902344 17.027344 10.566406 17.046875 10.617188 17.097656 C 10.636719 17.117188 10.710938 17.132812 10.78125 17.132812 C 10.847656 17.128906 10.902344 17.148438 10.902344 17.171875 C 10.902344 17.195312 10.925781 17.191406 10.964844 17.160156 C 11.015625 17.121094 11.019531 17.101562 10.976562 17.078125 Z M 11.484375 14.730469 C 11.519531 14.664062 11.558594 14.523438 11.574219 14.421875 L 11.597656 14.234375 L 11.480469 14.453125 C 11.417969 14.574219 11.371094 14.710938 11.382812 14.761719 C 11.402344 14.878906 11.414062 14.875 11.484375 14.730469 Z M 11.792969 13.578125 C 11.863281 13.613281 11.871094 13.59375 11.882812 13.320312 C 11.890625 13.15625 11.882812 13.039062 11.863281 13.054688 C 11.789062 13.128906 11.566406 13.6875 11.617188 13.667969 C 11.652344 13.65625 11.675781 13.675781 11.679688 13.722656 C 11.683594 13.761719 11.695312 13.738281 11.703125 13.667969 C 11.71875 13.554688 11.730469 13.542969 11.792969 13.578125 Z M 11.792969 13.578125 "/>
<path style=" stroke:none;fill-rule:nonzero;fill:rgb(0%,50.196078%,0%);fill-opacity:1;" d="M 10.496094 16.925781 L 11.117188 16.925781 L 11.117188 17.273438 L 10.496094 17.273438 Z M 10.496094 16.925781 "/>
</g>
</svg>
