<svg id="svg" version="1.1" width="2008" height="1362" xmlns="http://www.w3.org/2000/svg" xmlns:xlink="http://www.w3.org/1999/xlink" ><g id="svgg"><path id="path0" d="M192.680 88.683 C 192.229 89.920,192.165 92.213,192.528 94.074 C 192.717 95.044,192.563 95.017,191.950 93.974 C 191.312 92.888,189.828 91.468,188.496 90.670 C 187.379 90.001,187.226 90.040,187.849 90.837 C 188.063 91.111,188.240 91.408,188.243 91.498 C 188.256 91.975,190.110 94.238,191.069 94.945 C 191.860 95.528,191.657 95.541,190.239 95.000 C 189.240 94.618,186.056 94.217,186.056 94.473 C 186.056 94.841,189.775 96.215,190.770 96.215 C 191.395 96.215,191.200 96.546,190.482 96.704 C 190.180 96.770,189.665 97.009,189.339 97.235 L 188.745 97.646 189.918 97.539 C 190.564 97.481,191.526 97.218,192.057 96.956 L 193.022 96.478 191.948 97.492 C 191.356 98.050,189.096 100.433,186.925 102.789 C 184.754 105.144,182.145 107.910,181.127 108.935 C 178.966 111.111,179.590 111.065,175.100 109.381 C 170.549 107.674,171.061 107.638,168.770 109.828 C 167.704 110.846,165.624 112.794,164.146 114.157 C 160.077 117.907,157.569 120.390,157.569 120.667 C 157.571 121.481,158.387 120.843,165.148 114.746 C 172.427 108.181,171.146 108.737,174.864 110.524 L 176.793 111.451 175.100 111.552 C 172.951 111.681,172.794 112.019,174.190 113.511 C 175.374 114.777,175.354 114.806,173.682 114.221 C 172.079 113.661,171.874 113.716,172.364 114.571 C 172.863 115.441,172.808 115.538,171.813 115.538 C 170.684 115.538,170.692 115.657,171.912 117.051 C 173.415 118.769,173.207 118.878,170.219 117.938 C 167.752 117.162,167.770 117.427,170.319 119.342 C 171.938 120.559,172.258 120.568,173.065 119.422 C 173.413 118.929,173.833 118.526,174.000 118.526 C 174.166 118.526,174.303 118.445,174.303 118.346 C 174.303 118.124,177.702 114.363,182.061 109.761 C 183.878 107.844,186.808 104.706,188.573 102.789 C 192.574 98.443,192.797 98.233,193.018 98.590 C 193.151 98.804,193.202 98.783,193.258 98.492 C 193.358 97.975,195.018 99.462,195.024 100.073 C 195.030 100.634,195.429 101.101,197.161 102.575 C 199.096 104.220,199.060 104.406,196.914 103.867 C 195.950 103.625,196.621 104.388,199.251 106.524 C 203.281 109.797,203.113 109.921,197.822 107.576 C 192.895 105.392,192.840 105.383,194.287 107.036 C 195.733 108.687,195.660 108.837,193.504 108.658 C 192.476 108.572,191.833 108.592,191.833 108.709 C 191.833 109.323,200.259 115.573,200.740 115.316 C 201.511 114.903,204.130 111.015,205.663 108.006 C 206.561 106.242,208.202 105.013,209.196 105.360 C 210.003 105.641,212.556 107.354,212.690 107.704 C 212.917 108.295,218.864 110.487,221.514 110.956 C 224.501 111.485,224.972 111.617,226.340 112.316 C 228.230 113.281,228.316 113.579,226.660 113.427 C 224.066 113.188,218.349 112.318,216.166 111.831 C 213.198 111.168,213.209 111.291,216.246 112.789 C 220.188 114.734,219.920 114.939,215.150 113.629 C 213.787 113.255,212.352 112.956,211.963 112.965 L 211.255 112.981 212.268 113.444 C 212.825 113.699,215.425 114.690,218.045 115.645 C 224.947 118.162,225.153 118.327,221.414 118.327 C 218.560 118.327,218.388 118.570,220.848 119.131 C 221.907 119.372,223.066 119.692,223.423 119.841 C 224.618 120.340,232.699 120.754,232.961 120.330 C 233.119 120.074,230.999 118.659,229.122 117.767 C 227.322 116.911,227.467 116.846,230.613 117.097 C 233.075 117.293,233.042 117.284,240.817 120.009 C 242.085 120.454,242.961 120.664,243.074 120.552 C 243.355 120.270,242.459 119.739,238.950 118.110 C 237.201 117.298,233.940 115.537,231.704 114.198 C 227.018 111.391,226.056 110.978,223.626 110.725 C 221.159 110.468,219.395 109.729,215.529 107.336 C 209.681 103.715,208.289 103.458,205.382 105.457 C 203.892 106.482,204.545 106.903,197.453 100.344 C 194.240 97.372,193.595 96.662,194.595 97.197 C 194.819 97.317,195.566 97.467,196.256 97.531 L 197.510 97.647 196.908 97.260 C 196.576 97.047,195.949 96.752,195.513 96.604 L 194.721 96.334 195.665 96.192 C 197.179 95.964,199.894 94.931,200.548 94.335 C 200.575 94.310,200.082 94.324,199.452 94.366 C 197.977 94.465,195.460 94.991,195.311 95.232 C 195.247 95.334,195.086 95.418,194.952 95.418 C 194.817 95.418,195.338 94.768,196.109 93.974 C 196.935 93.123,197.761 92.027,198.121 91.304 L 198.731 90.078 197.738 90.607 C 196.651 91.185,194.779 92.948,194.377 93.773 C 194.074 94.394,193.472 94.693,193.717 94.101 C 194.141 93.076,194.067 89.964,193.588 88.710 L 193.118 87.480 192.680 88.683 M194.821 114.717 C 194.821 114.840,195.269 115.407,195.817 115.975 C 196.919 117.118,196.999 117.374,196.414 117.875 C 195.881 118.332,195.912 118.771,196.532 119.507 C 197.452 120.600,198.539 119.970,199.561 117.751 L 200.055 116.677 199.579 116.309 C 198.567 115.525,194.821 114.272,194.821 114.717 M182.869 114.946 C 182.869 115.059,183.093 115.684,183.367 116.335 C 184.181 118.270,184.192 118.253,181.673 119.035 C 180.325 119.454,180.080 119.640,180.080 120.244 L 180.080 120.717 186.305 120.706 C 189.729 120.699,192.888 120.624,193.327 120.538 L 194.124 120.382 191.833 118.088 C 189.141 115.392,187.061 114.071,188.520 115.984 C 188.974 116.579,189.641 117.917,189.641 118.231 C 189.641 118.458,188.249 118.924,187.573 118.924 C 186.999 118.924,186.779 118.785,186.238 118.078 C 184.798 116.195,182.869 114.402,182.869 114.946 M121.139 116.358 C 120.115 116.550,119.323 117.020,119.323 117.435 C 119.323 117.864,119.695 117.796,120.436 117.231 C 121.189 116.657,122.229 116.578,123.099 117.028 C 124.162 117.577,124.012 118.166,122.557 119.147 C 120.697 120.402,119.867 121.158,120.152 121.339 C 120.520 121.572,123.736 121.552,124.104 121.315 C 124.317 121.177,124.088 121.120,123.307 121.116 C 121.711 121.107,121.507 120.892,122.431 120.194 C 123.748 119.200,124.701 118.188,124.701 117.783 C 124.701 116.773,122.859 116.036,121.139 116.358 M132.717 116.533 C 130.940 117.616,130.834 119.608,132.478 120.992 C 134.069 122.331,136.720 120.977,136.720 118.825 C 136.720 116.779,134.448 115.478,132.717 116.533 M259.313 116.252 C 259.249 116.316,259.354 116.525,259.546 116.718 C 259.810 116.981,259.927 117.547,260.024 119.022 C 260.153 120.984,260.231 121.309,260.508 121.033 C 260.778 120.763,260.817 116.746,260.552 116.427 C 260.312 116.138,259.536 116.028,259.313 116.252 M268.825 116.376 C 268.170 116.752,267.941 117.185,267.935 118.063 C 267.931 118.530,267.797 119.027,267.629 119.195 C 266.781 120.043,267.712 121.314,269.293 121.466 C 271.265 121.656,272.787 120.635,272.206 119.512 C 272.044 119.200,271.912 118.498,271.912 117.953 C 271.912 116.408,270.250 115.559,268.825 116.376 M134.987 117.086 C 136.035 117.935,136.164 119.350,135.279 120.298 C 134.363 121.278,133.243 121.133,132.411 119.926 C 131.254 118.246,133.441 115.834,134.987 117.086 M270.909 117.117 C 271.220 117.699,270.956 118.102,270.167 118.250 C 269.116 118.447,268.475 117.870,268.802 117.020 C 268.979 116.558,270.651 116.635,270.909 117.117 M270.492 118.945 C 272.145 119.521,271.216 121.393,269.486 120.973 C 267.931 120.596,267.865 119.336,269.377 118.894 C 269.621 118.823,269.830 118.756,269.841 118.745 C 269.852 118.734,270.145 118.824,270.492 118.945 M209.115 119.036 C 209.034 119.119,209.061 119.299,209.176 119.437 C 209.440 119.755,209.129 119.849,207.221 120.026 C 204.149 120.311,206.233 120.727,210.558 120.692 C 214.521 120.660,215.310 120.350,213.750 119.439 C 213.031 119.019,209.438 118.706,209.115 119.036 M164.592 119.912 C 163.497 120.589,163.778 120.719,166.285 120.694 C 170.169 120.654,170.759 120.286,167.530 119.917 C 166.708 119.823,165.857 119.694,165.637 119.629 C 165.405 119.561,164.970 119.679,164.592 119.912 M236.767 120.097 C 236.634 120.312,237.771 120.501,238.325 120.356 C 238.717 120.254,238.717 120.249,238.336 120.100 C 237.793 119.888,236.897 119.886,236.767 120.097 M128.279 136.866 C 118.410 137.914,115.030 147.634,123.066 151.857 C 132.563 156.848,145.366 150.429,141.751 142.488 C 140.245 139.181,134.485 136.315,130.080 136.682 C 129.915 136.695,129.105 136.778,128.279 136.866 M180.046 136.843 C 174.207 137.916,171.217 140.787,171.217 145.319 C 171.217 150.226,174.669 153.023,181.303 153.491 C 195.276 154.474,199.859 140.906,186.792 137.243 C 185.175 136.790,181.517 136.573,180.046 136.843 M200.299 136.826 C 197.271 137.051,196.957 138.246,199.837 138.587 L 200.859 138.708 200.740 145.172 C 200.675 148.727,200.585 151.673,200.540 151.718 C 200.495 151.763,199.929 151.865,199.283 151.946 L 198.108 152.092 198.044 152.861 L 197.981 153.630 202.347 153.557 C 206.813 153.483,207.371 153.383,207.371 152.661 C 207.371 152.289,206.717 152.042,205.329 151.890 L 204.183 151.764 204.183 149.288 L 204.183 146.813 206.262 146.813 C 209.389 146.813,209.521 146.895,212.372 150.623 C 214.367 153.231,214.770 153.497,216.658 153.446 C 219.140 153.379,220.347 152.230,218.210 151.968 C 216.771 151.792,216.503 151.595,214.914 149.546 C 212.788 146.803,212.593 146.168,213.797 145.906 C 218.030 144.986,218.073 139.421,213.859 137.865 C 211.534 137.007,204.803 136.491,200.299 136.826 M244.422 136.837 C 236.813 137.911,232.865 143.955,236.383 149.142 C 240.840 155.713,255.474 154.750,258.160 147.709 C 260.578 141.369,253.272 135.587,244.422 136.837 M296.912 136.862 C 291.651 137.556,289.261 140.858,292.166 143.415 C 293.389 144.492,295.543 145.286,299.243 146.023 C 305.193 147.209,306.719 148.168,305.645 150.046 C 304.005 152.913,295.563 152.089,293.436 148.855 L 292.748 147.809 291.493 147.809 L 290.239 147.809 290.239 150.572 L 290.239 153.336 291.285 153.439 C 292.518 153.561,292.829 153.369,292.829 152.487 C 292.829 151.553,293.193 151.524,294.853 152.322 C 300.445 155.012,309.066 153.264,309.507 149.351 C 309.784 146.892,308.244 146.007,300.770 144.333 C 296.310 143.334,294.983 142.784,294.479 141.726 C 292.651 137.895,303.195 137.561,305.227 141.387 C 305.747 142.366,306.080 142.520,307.291 142.338 L 308.167 142.207 308.167 139.530 L 308.167 136.853 307.420 136.855 C 306.272 136.859,305.822 137.045,305.690 137.569 C 305.541 138.166,305.393 138.164,303.594 137.553 C 302.254 137.097,299.472 136.619,298.511 136.679 C 298.289 136.693,297.570 136.775,296.912 136.862 M90.787 137.068 C 89.851 137.613,90.522 138.382,92.095 138.567 L 93.227 138.700 93.227 140.914 C 93.226 142.131,93.167 145.071,93.096 147.447 L 92.965 151.766 91.752 151.929 L 90.538 152.092 90.476 152.839 L 90.414 153.586 94.809 153.586 L 99.203 153.586 99.200 153.038 C 99.196 152.218,99.006 152.065,97.832 151.929 C 97.241 151.861,96.720 151.766,96.672 151.718 C 96.491 151.538,96.385 142.694,96.554 141.932 C 96.783 140.902,96.967 140.928,98.003 142.131 C 98.474 142.679,100.931 145.304,103.464 147.964 C 108.488 153.241,108.939 153.586,110.820 153.586 L 111.952 153.586 111.978 150.747 C 111.993 149.186,112.060 145.847,112.128 143.327 L 112.251 138.745 113.368 138.625 C 114.794 138.472,114.940 138.370,114.940 137.538 L 114.940 136.853 110.679 136.853 C 106.976 136.853,106.401 136.894,106.296 137.168 C 105.906 138.185,106.452 138.645,108.052 138.645 L 108.907 138.645 109.035 139.870 C 109.106 140.543,109.163 142.835,109.163 144.963 C 109.163 149.601,108.949 150.306,107.917 149.064 C 105.958 146.709,97.262 137.675,96.515 137.219 C 95.834 136.804,91.440 136.688,90.787 137.068 M146.759 136.996 C 145.821 137.137,145.567 137.785,145.728 139.629 L 145.868 141.235 147.013 141.235 C 148.368 141.235,148.532 141.086,148.718 139.686 L 148.856 138.645 151.897 138.645 L 154.939 138.645 155.079 141.484 C 155.156 143.045,155.187 145.866,155.149 147.752 C 155.068 151.775,155.043 151.829,153.232 151.990 C 152.208 152.081,151.624 152.869,152.256 153.308 C 152.275 153.321,154.201 153.393,156.536 153.467 L 160.782 153.601 160.720 152.847 C 160.664 152.169,160.596 152.086,160.060 152.037 C 158.053 151.854,158.055 151.862,158.121 144.746 C 158.151 141.582,158.223 138.915,158.283 138.819 C 158.342 138.724,159.719 138.645,161.343 138.645 C 164.636 138.645,164.532 138.596,164.539 140.165 C 164.543 140.980,164.823 141.180,166.086 141.264 L 167.132 141.335 167.132 140.018 C 167.132 139.294,167.074 138.285,167.005 137.777 L 166.878 136.853 157.094 136.882 C 151.713 136.899,147.062 136.950,146.759 136.996 M222.759 136.985 C 221.769 137.384,222.752 138.461,224.256 138.622 L 225.398 138.745 225.451 144.721 C 225.517 152.083,225.546 151.982,223.344 151.989 C 222.495 151.992,222.485 152.000,222.547 152.639 L 222.610 153.287 227.042 153.340 L 231.474 153.394 231.474 152.693 L 231.474 151.992 230.500 151.992 C 229.838 151.992,229.376 151.870,229.056 151.611 L 228.586 151.231 228.586 144.988 L 228.586 138.745 229.703 138.625 C 231.128 138.472,231.275 138.370,231.275 137.538 L 231.275 136.853 227.141 136.868 C 224.868 136.877,222.896 136.929,222.759 136.985 M262.272 137.168 C 261.880 138.191,262.428 138.645,264.053 138.645 C 265.143 138.645,265.080 138.387,265.234 143.526 C 265.434 150.252,265.696 151.047,268.102 152.251 C 271.886 154.144,278.360 153.977,281.491 151.905 C 283.042 150.879,283.384 149.403,283.623 142.729 L 283.765 138.745 284.761 138.638 C 285.960 138.509,286.653 138.159,286.653 137.682 C 286.653 136.913,286.314 136.853,282.032 136.853 L 277.888 136.853 277.888 137.538 C 277.888 138.370,278.035 138.472,279.461 138.625 L 280.578 138.745 280.566 143.127 C 280.546 150.920,279.685 151.994,273.659 151.747 C 270.572 151.620,269.701 151.216,268.825 149.505 L 268.227 148.336 268.227 143.541 L 268.227 138.745 269.344 138.625 C 270.770 138.472,270.916 138.370,270.916 137.538 L 270.916 136.853 266.655 136.853 C 262.953 136.853,262.377 136.894,262.272 137.168 M211.899 139.126 C 214.674 140.048,215.002 143.154,212.457 144.414 C 211.540 144.869,211.203 144.911,207.857 144.986 L 204.246 145.067 204.115 143.220 C 204.043 142.204,203.984 140.737,203.984 139.959 L 203.984 138.546 207.446 138.671 C 209.841 138.758,211.213 138.898,211.899 139.126 M132.470 138.854 C 139.731 140.004,141.620 147.605,135.401 150.650 C 128.263 154.146,119.419 149.059,122.211 143.063 C 123.810 139.627,127.583 138.079,132.470 138.854 M185.510 139.032 C 194.725 141.388,192.406 151.777,182.661 151.790 C 177.739 151.797,174.104 148.963,174.104 145.120 C 174.104 140.420,179.558 137.509,185.510 139.032 M250.482 139.225 C 255.954 141.167,257.329 145.937,253.427 149.445 C 248.157 154.184,238.201 151.289,238.191 145.015 C 238.182 140.194,244.640 137.152,250.482 139.225 M163.059 168.425 C 159.895 169.552,160.192 172.958,163.500 173.481 C 167.262 174.076,170.055 171.602,167.973 169.519 C 166.754 168.301,164.695 167.842,163.059 168.425 M175.448 168.442 C 175.248 168.644,175.284 172.504,175.491 173.008 C 175.666 173.434,175.643 173.468,176.023 172.211 C 176.310 171.260,176.892 171.337,178.174 172.498 C 178.786 173.052,179.421 173.506,179.584 173.506 C 180.158 173.506,179.862 172.932,178.936 172.249 L 178.315 171.791 179.247 171.101 C 180.390 170.255,180.511 169.514,179.617 168.846 C 179.036 168.412,175.791 168.097,175.448 168.442 M188.546 168.616 C 183.997 170.280,187.892 174.703,192.651 173.277 C 195.306 172.481,194.180 170.319,191.486 171.041 C 190.754 171.238,191.189 171.514,192.231 171.514 C 193.443 171.514,193.595 171.735,192.828 172.380 C 191.645 173.376,189.052 173.236,187.848 172.111 C 185.735 170.138,189.676 167.716,192.530 169.233 C 193.988 170.009,194.861 169.825,193.526 169.024 C 192.328 168.305,189.932 168.109,188.546 168.616 M225.830 168.459 C 225.662 168.627,225.660 172.251,225.827 172.875 C 226.082 173.827,226.289 172.800,226.292 170.568 C 226.295 168.517,226.201 168.089,225.830 168.459 M233.267 168.448 C 233.267 168.515,233.715 169.060,234.263 169.659 C 234.811 170.259,235.259 170.824,235.259 170.916 C 235.259 171.008,234.811 171.574,234.263 172.173 C 233.715 172.773,233.267 173.318,233.267 173.385 C 233.267 173.724,233.898 173.413,234.839 172.610 C 235.417 172.117,236.013 171.713,236.165 171.713 C 236.317 171.713,236.895 172.117,237.450 172.610 C 238.005 173.103,238.546 173.506,238.652 173.506 C 239.045 173.506,238.824 173.112,238.136 172.587 C 236.606 171.421,236.617 170.571,238.177 169.258 C 238.815 168.721,239.029 168.327,238.683 168.327 C 238.595 168.327,238.049 168.730,237.472 169.223 C 236.214 170.297,236.071 170.310,235.110 169.451 C 234.145 168.588,233.267 168.110,233.267 168.448 M203.120 169.173 C 202.971 169.529,202.387 170.527,201.823 171.390 C 200.446 173.497,200.484 173.783,202.008 172.774 C 203.488 171.795,206.027 171.948,206.299 173.033 C 206.419 173.512,207.171 173.725,207.171 173.280 C 207.171 173.015,204.589 168.893,204.289 168.678 C 203.836 168.356,203.383 168.548,203.120 169.173 M213.835 168.741 C 213.616 169.095,213.683 172.926,213.912 173.155 C 214.142 173.385,214.248 173.043,214.414 171.540 C 214.569 170.140,214.752 170.154,216.451 171.703 C 218.427 173.505,218.607 173.481,218.686 171.412 C 218.798 168.494,218.390 167.670,218.028 170.082 C 217.756 171.892,217.504 171.886,215.709 170.031 C 214.205 168.477,214.060 168.377,213.835 168.741 M166.701 169.306 C 168.520 170.234,168.317 171.791,166.256 172.727 C 163.665 173.904,160.510 171.897,161.879 169.943 C 162.727 168.732,164.990 168.433,166.701 169.306 M178.561 168.915 C 178.835 169.019,179.167 169.305,179.298 169.549 C 179.803 170.494,177.848 171.328,176.630 170.687 C 174.887 169.769,176.621 168.177,178.561 168.915 M204.731 170.277 C 205.327 171.035,204.928 171.514,203.702 171.514 C 202.859 171.514,202.787 171.418,203.060 170.656 C 203.417 169.656,204.118 169.497,204.731 170.277 M157.072 180.657 C 150.518 180.854,150.307 181.091,150.432 188.092 C 150.535 193.897,150.289 193.725,158.531 193.725 L 164.641 193.725 165.530 193.227 C 167.254 192.261,167.331 192.000,167.330 187.072 C 167.329 180.219,167.526 180.343,157.072 180.657 M165.385 181.601 C 166.138 181.986,166.534 182.854,166.534 184.123 L 166.534 185.198 164.161 185.325 C 162.313 185.425,161.603 185.387,160.949 185.157 C 159.888 184.783,158.233 184.777,157.128 185.144 C 156.634 185.309,155.229 185.455,153.785 185.493 L 151.295 185.558 151.241 184.562 C 151.172 183.308,151.648 182.327,152.590 181.780 C 153.774 181.091,164.107 180.947,165.385 181.601 M162.363 182.554 C 162.232 182.713,162.155 183.261,162.190 183.799 L 162.251 184.761 163.614 184.820 C 164.447 184.857,165.085 184.789,165.257 184.646 C 165.601 184.361,165.631 182.842,165.299 182.510 C 164.953 182.164,162.659 182.198,162.363 182.554 M164.741 183.566 C 164.741 184.259,164.736 184.263,163.845 184.263 C 162.953 184.263,162.948 184.259,162.948 183.566 C 162.948 182.872,162.953 182.869,163.845 182.869 C 164.736 182.869,164.741 182.872,164.741 183.566 M174.629 183.751 C 171.025 185.067,171.522 190.219,175.187 189.531 C 176.197 189.341,176.066 189.127,174.992 189.213 C 172.384 189.420,171.389 186.980,173.270 184.992 C 175.441 182.697,178.957 184.188,177.815 186.920 C 177.097 188.638,176.129 188.344,176.444 186.504 C 176.708 184.966,176.751 185.076,175.827 184.926 C 174.916 184.779,173.816 185.763,173.599 186.919 C 173.344 188.278,174.309 188.701,175.268 187.651 L 175.812 187.055 175.805 187.601 C 175.792 188.506,176.847 188.479,177.659 187.553 C 179.428 185.539,177.243 182.797,174.629 183.751 M223.314 183.720 C 221.027 184.529,221.133 188.625,223.463 189.436 C 225.349 190.093,226.893 188.804,226.892 186.574 C 226.890 184.247,225.334 183.005,223.314 183.720 M179.133 183.880 C 179.436 184.057,179.482 184.411,179.482 186.554 C 179.482 188.696,179.436 189.051,179.133 189.227 C 178.864 189.384,179.011 189.428,179.781 189.423 C 180.642 189.416,180.716 189.386,180.329 189.199 C 179.905 188.995,179.881 188.868,179.888 186.872 L 179.895 184.761 180.385 185.359 C 180.655 185.687,181.436 186.736,182.121 187.689 C 183.812 190.040,183.865 190.012,183.865 186.763 C 183.865 184.421,183.908 184.058,184.213 183.880 C 184.485 183.722,184.348 183.676,183.593 183.671 C 182.641 183.665,182.632 183.671,183.054 184.014 C 183.447 184.333,183.479 184.521,183.425 186.228 L 183.367 188.093 181.773 185.887 C 180.268 183.802,180.141 183.680,179.482 183.679 C 178.914 183.678,178.849 183.715,179.133 183.880 M201.793 184.064 C 201.793 184.329,201.926 184.462,202.191 184.462 C 202.457 184.462,202.590 184.329,202.590 184.064 C 202.590 183.798,202.457 183.665,202.191 183.665 C 201.926 183.665,201.793 183.798,201.793 184.064 M245.618 184.064 C 245.618 184.329,245.750 184.462,246.016 184.462 C 246.282 184.462,246.414 184.329,246.414 184.064 C 246.414 183.798,246.282 183.665,246.016 183.665 C 245.750 183.665,245.618 183.798,245.618 184.064 M225.578 184.527 C 226.182 185.339,226.181 187.771,225.576 188.581 C 224.047 190.630,221.707 187.794,222.723 185.123 C 223.262 183.704,224.737 183.396,225.578 184.527 M190.687 184.395 C 190.550 184.450,190.438 184.661,190.438 184.863 C 190.438 185.065,190.281 185.271,190.090 185.321 C 189.758 185.408,189.758 185.413,190.090 185.435 C 190.391 185.455,190.438 185.676,190.438 187.065 C 190.438 189.088,190.614 189.449,191.591 189.422 C 192.227 189.405,192.261 189.383,191.833 189.264 C 191.354 189.132,191.332 189.057,191.278 187.305 L 191.220 185.484 191.875 185.404 L 192.530 185.323 191.882 185.291 C 191.333 185.264,191.235 185.183,191.235 184.761 C 191.235 184.262,191.152 184.207,190.687 184.395 M186.332 185.255 C 185.042 185.777,184.632 187.709,185.575 188.829 C 186.762 190.240,189.044 189.316,189.044 187.425 C 189.044 185.714,187.753 184.681,186.332 185.255 M194.119 185.330 C 192.173 186.203,192.870 189.442,195.003 189.442 C 196.345 189.442,196.912 188.817,196.912 187.339 C 196.912 185.628,195.584 184.673,194.119 185.330 M200.000 185.201 C 199.836 185.262,199.544 185.448,199.353 185.615 C 199.039 185.888,199.004 185.886,199.004 185.589 C 199.004 185.339,198.822 185.260,198.257 185.265 C 197.653 185.270,197.577 185.310,197.859 185.474 C 198.147 185.642,198.207 185.967,198.207 187.351 C 198.207 188.734,198.147 189.059,197.859 189.227 C 197.595 189.381,197.801 189.428,198.705 189.423 C 199.710 189.416,199.829 189.381,199.452 189.199 C 198.937 188.951,198.776 186.562,199.243 186.096 C 199.532 185.806,200.199 185.778,200.199 186.056 C 200.199 186.165,200.289 186.255,200.398 186.255 C 200.508 186.255,200.598 185.986,200.598 185.657 C 200.598 185.052,200.535 185.004,200.000 185.201 M204.876 185.330 C 202.930 186.203,203.627 189.442,205.760 189.442 C 207.102 189.442,207.669 188.817,207.669 187.339 C 207.669 185.628,206.341 184.673,204.876 185.330 M214.635 185.244 C 213.380 185.768,213.511 186.826,214.919 187.539 C 215.990 188.082,216.231 188.439,215.863 188.942 C 215.511 189.423,214.497 189.268,214.246 188.695 C 213.974 188.076,213.705 188.133,213.782 188.795 C 213.841 189.307,213.913 189.347,214.912 189.404 C 217.006 189.523,217.483 187.975,215.637 187.052 C 214.841 186.653,214.641 186.454,214.641 186.056 C 214.641 185.301,215.830 185.205,216.015 185.945 C 216.191 186.645,216.534 186.586,216.534 185.857 C 216.534 185.421,216.439 185.258,216.185 185.256 C 215.994 185.255,215.657 185.213,215.438 185.164 C 215.219 185.115,214.857 185.151,214.635 185.244 M229.615 185.467 C 229.176 185.813,229.084 185.831,229.084 185.572 C 229.084 185.335,228.880 185.262,228.237 185.272 C 227.528 185.282,227.463 185.314,227.839 185.464 C 228.253 185.631,228.287 185.769,228.287 187.314 C 228.287 188.848,228.251 189.000,227.839 189.199 C 227.467 189.378,227.611 189.415,228.685 189.416 C 229.654 189.417,229.867 189.372,229.532 189.237 C 229.128 189.074,229.084 188.921,229.084 187.680 C 229.084 186.114,229.403 185.587,230.093 186.018 C 230.638 186.358,230.711 186.319,230.641 185.723 C 230.558 185.026,230.268 184.954,229.615 185.467 M232.470 185.194 C 231.456 185.592,231.122 186.899,231.849 187.626 C 232.215 187.992,232.215 188.007,231.833 188.334 C 231.532 188.592,231.495 188.729,231.671 188.942 C 231.848 189.154,231.807 189.308,231.492 189.624 C 230.377 190.739,233.207 191.668,234.535 190.623 C 235.636 189.757,235.130 188.901,233.460 188.807 C 232.114 188.730,231.917 188.228,233.155 188.027 C 234.439 187.818,234.871 187.012,234.358 185.784 C 234.228 185.473,234.270 185.434,234.614 185.543 C 234.841 185.615,235.084 185.580,235.154 185.466 C 235.234 185.338,235.022 185.259,234.598 185.259 C 234.222 185.259,233.657 185.218,233.342 185.168 C 233.027 185.118,232.634 185.129,232.470 185.194 M236.703 185.275 C 236.257 185.409,236.056 185.592,236.056 185.862 C 236.056 186.371,236.487 186.367,236.806 185.857 C 237.103 185.382,237.955 185.328,238.126 185.773 C 238.463 186.651,238.152 187.052,237.135 187.052 C 236.109 187.052,235.469 188.429,236.170 189.129 C 236.573 189.532,237.724 189.533,238.058 189.131 C 238.293 188.848,238.333 188.848,238.491 189.131 C 238.587 189.302,238.907 189.440,239.203 189.436 C 239.665 189.431,239.692 189.401,239.392 189.227 C 239.108 189.061,239.044 188.740,239.044 187.478 C 239.044 185.338,238.428 184.758,236.703 185.275 M242.430 185.201 C 242.266 185.262,241.975 185.448,241.783 185.615 C 241.469 185.888,241.434 185.886,241.434 185.589 C 241.434 185.332,241.248 185.262,240.588 185.272 C 239.879 185.282,239.814 185.314,240.189 185.464 C 240.605 185.632,240.637 185.768,240.637 187.351 C 240.637 188.934,240.605 189.070,240.189 189.237 C 239.846 189.375,240.022 189.419,240.936 189.424 C 241.841 189.429,242.047 189.381,241.783 189.227 C 240.713 188.604,241.588 185.467,242.769 185.693 C 243.302 185.795,243.414 188.813,242.899 189.189 C 242.605 189.404,242.730 189.442,243.731 189.442 C 244.854 189.442,244.889 189.428,244.467 189.132 C 244.073 188.856,244.024 188.649,244.024 187.251 C 244.024 185.376,243.564 184.784,242.430 185.201 M175.931 185.857 C 175.853 186.460,174.864 187.749,174.480 187.749 C 174.054 187.749,174.151 186.155,174.608 185.650 C 175.150 185.051,176.018 185.187,175.931 185.857 M201.345 185.464 C 201.759 185.631,201.793 185.769,201.793 187.314 C 201.793 188.848,201.757 189.000,201.345 189.199 C 200.968 189.381,201.087 189.416,202.092 189.423 C 202.996 189.428,203.202 189.381,202.938 189.227 C 202.645 189.056,202.590 188.724,202.590 187.141 L 202.590 185.259 201.743 185.272 C 201.034 185.282,200.969 185.314,201.345 185.464 M208.367 185.404 C 208.870 185.596,208.958 185.900,208.961 187.460 C 208.965 189.421,209.787 190.060,211.111 189.132 C 211.512 188.851,211.554 188.851,211.554 189.132 C 211.554 189.366,211.762 189.439,212.400 189.430 C 213.109 189.419,213.174 189.388,212.799 189.237 C 212.378 189.068,212.351 188.941,212.351 187.158 L 212.351 185.259 211.504 185.272 C 210.795 185.282,210.730 185.314,211.106 185.464 C 211.777 185.734,211.781 188.265,211.111 188.734 C 210.020 189.498,209.562 188.879,209.562 186.640 L 209.562 185.259 208.815 185.275 C 208.404 185.283,208.202 185.342,208.367 185.404 M245.269 185.474 C 245.557 185.642,245.618 185.967,245.618 187.351 C 245.618 188.734,245.557 189.059,245.269 189.227 C 245.014 189.375,245.431 189.431,246.813 189.433 C 248.020 189.435,248.602 189.371,248.420 189.256 C 248.155 189.088,248.856 187.652,249.203 187.652 C 249.550 187.652,250.251 189.088,249.987 189.256 C 249.795 189.377,250.042 189.437,250.744 189.439 L 251.786 189.442 250.893 188.510 C 249.804 187.373,249.794 187.177,250.774 186.105 L 251.548 185.259 250.824 185.262 C 250.327 185.264,250.187 185.320,250.377 185.441 C 250.607 185.586,250.576 185.745,250.203 186.349 C 249.954 186.752,249.687 187.007,249.610 186.917 C 248.704 185.854,248.578 185.573,248.942 185.429 C 249.158 185.344,248.867 185.281,248.213 185.273 C 247.214 185.260,247.157 185.283,247.528 185.543 C 247.751 185.699,248.185 186.190,248.493 186.634 L 249.052 187.442 248.400 188.193 C 246.902 189.917,246.414 189.658,246.414 187.138 L 246.414 185.259 245.667 185.265 C 245.063 185.270,244.987 185.310,245.269 185.474 M160.454 185.680 C 161.502 185.971,162.676 187.158,162.854 188.106 C 163.345 190.726,159.531 192.781,156.767 191.384 C 152.765 189.363,155.953 184.431,160.454 185.680 M187.943 186.046 C 188.551 187.222,188.195 188.949,187.298 189.174 C 186.205 189.449,185.446 187.428,186.138 186.089 C 186.589 185.217,187.503 185.196,187.943 186.046 M195.947 186.198 C 196.521 187.572,195.943 189.243,194.895 189.243 C 194.322 189.243,193.825 188.364,193.825 187.351 C 193.825 185.497,195.316 184.687,195.947 186.198 M206.704 186.198 C 207.278 187.572,206.700 189.243,205.652 189.243 C 205.079 189.243,204.582 188.364,204.582 187.351 C 204.582 185.497,206.073 184.687,206.704 186.198 M233.750 186.106 C 234.131 187.196,233.307 188.261,232.560 187.641 C 232.262 187.394,232.151 185.843,232.413 185.582 C 232.746 185.249,233.562 185.568,233.750 186.106 M166.499 188.725 C 166.401 193.094,166.552 193.007,158.692 193.163 L 153.088 193.274 152.390 192.796 C 151.442 192.145,151.220 191.355,151.206 188.596 L 151.195 186.255 153.181 186.255 L 155.167 186.255 154.675 186.980 C 152.169 190.673,158.186 194.284,162.109 191.442 C 163.746 190.256,164.173 188.027,163.025 186.663 L 162.529 186.073 164.083 186.005 C 164.938 185.967,165.846 185.919,166.100 185.897 L 166.563 185.857 166.499 188.725 M157.444 186.836 C 155.154 188.232,156.106 190.838,158.904 190.836 C 160.576 190.835,161.941 189.556,161.656 188.257 C 161.320 186.727,158.939 185.924,157.444 186.836 M160.508 187.748 C 161.078 188.410,161.075 188.884,160.496 189.556 C 159.425 190.802,156.972 190.252,156.972 188.765 C 156.972 187.183,159.417 186.480,160.508 187.748 M238.209 188.098 C 238.143 189.011,237.561 189.350,236.941 188.836 C 236.297 188.301,236.849 187.251,237.775 187.251 C 238.234 187.251,238.265 187.312,238.209 188.098 M217.580 189.691 C 217.637 189.862,218.152 189.940,219.223 189.940 C 220.294 189.940,220.810 189.862,220.867 189.691 C 220.929 189.505,220.516 189.442,219.223 189.442 C 217.931 189.442,217.518 189.505,217.580 189.691 M234.226 189.986 C 234.123 190.882,232.261 191.164,231.942 190.333 C 231.693 189.684,232.027 189.442,233.174 189.442 C 234.272 189.442,234.288 189.451,234.226 189.986 " stroke="none" fill="#000000" fill-rule="evenodd"></path></g></svg>